# xmcd
#
# Track frame offsets:
#	150
#	19228
#	26100
#	29118
#	44263
#	52423
#	70435
#	81565
#	85713
#	97075
#	112470
#	126208
#	130455
#	141500
#	168483
#	180825
#	194668
#
# Disc length: 2869 seconds
#
# Revision: 1
# Processed by: cddbd v1.5PL3 Copyright (c) Steve Scherf et al.
# Submitted via: CDex 1.50Beta5
#
DISCID=120b3311
DTITLE=BLUE FILM - MANDRAGORA
DYEAR=1993
DGENRE=pop
TTITLE0=SHADOWS ON THE GROUND
TTITLE1=憧れの国スウェーデン
TTITLE2=BLUE FILM
TTITLE3=危ない女
TTITLE4=こんま1
TTITLE5=星の流れに
TTITLE6=善人横丁の人々
TTITLE7=テレ・フェチ
TTITLE8=こんま2
TTITLE9=博学な女
TTITLE10=懺悔
TTITLE11=死ぬ死ぬガールズ
TTITLE12=善人横丁の人々
TTITLE13=Sound Effect
TTITLE14=こんま3
TTITLE15=名前
TTITLE16=ピエールとカトリーヌ
EXTD=
EXTT0=
EXTT1=
EXTT2=
EXTT3=
EXTT4=
EXTT5=
EXTT6=
EXTT7=
EXTT8=
EXTT9=
EXTT10=
EXTT11=
EXTT12=
EXTT13=
EXTT14=
EXTT15=
EXTT16=
PLAYORDER=
